<svg xmlns="http://www.w3.org/2000/svg" viewBox="0 0 512 512" role="img" aria-label="Family financial shield icon">
  <defs>
    <linearGradient id="bg" x1="64" x2="448" y1="58" y2="454" gradientUnits="userSpaceOnUse">
      <stop stop-color="#5b2c1d" />
      <stop offset=".58" stop-color="#3a1e16" />
      <stop offset="1" stop-color="#180d0a" />
    </linearGradient>
    <linearGradient id="line" x1="154" x2="358" y1="116" y2="402" gradientUnits="userSpaceOnUse">
      <stop stop-color="#ffe1ad" />
      <stop offset="1" stop-color="#b47643" />
    </linearGradient>
  </defs>
  <rect width="512" height="512" rx="104" fill="#f8f0e5" />
  <rect x="46" y="46" width="420" height="420" rx="88" fill="url(#bg)" />
  <path d="M256 118c42 34 82 43 126 47v82c0 76-44 133-126 164-82-31-126-88-126-164v-82c44-4 84-13 126-47Z" fill="none" stroke="url(#line)" stroke-linejoin="round" stroke-width="28" />
  <path d="M186 246h140M186 300h104M186 354h144" fill="none" stroke="#fff3df" stroke-linecap="round" stroke-width="24" />
  <circle cx="340" cy="246" r="20" fill="#f1c37d" />
  <circle cx="306" cy="300" r="20" fill="#c78950" />
  <circle cx="348" cy="354" r="20" fill="#f1c37d" />
</svg>
